<svg width="367" height="241" viewBox="0 0 367 241" fill="none" xmlns="http://www.w3.org/2000/svg">
<g clip-path="url(#clip0_100_7452)">
<path d="M365.729 220.197L299.275 276.731L284.736 289.099L244.049 288.851L209.326 288.64L206.442 288.623L199.395 280.354L171.379 247.482L157.316 230.979L153.088 226.019L150.029 222.429L143.212 214.43L132.175 201.481L143.353 191.972L154.029 182.89L161.702 176.362L258.319 94.1685L365.729 220.197Z" fill="#F1DDC9"/>
<path d="M167.477 115.668H40.1179V207.654H167.477V115.668Z" fill="#3F3D56"/>
<path d="M372.767 288.744H276.734C276.734 288.744 274.787 260.219 286.305 259.895C297.822 259.571 296.524 272.537 310.962 254.709C325.399 236.881 342.919 237.853 345.19 248.388C347.461 258.923 340.81 267.35 352.977 264.757C365.143 262.164 382.663 268.971 372.767 288.744Z" fill="#F4DE4D"/>
<path d="M323.13 288.75L322.806 288.737C323.562 269.957 327.498 257.89 330.668 251.075C334.109 243.675 337.425 240.679 337.458 240.649L337.674 240.892C337.641 240.921 334.364 243.887 330.95 251.237C327.798 258.024 323.883 270.041 323.13 288.75Z" fill="#F2F2F2"/>
<path d="M271.877 95.6324H241.498V133.341H271.877V95.6324Z" fill="#2F2E41"/>
<path d="M240.808 153.805V164.841L257.838 167.601L272.567 161.622L269.805 154.724L240.808 153.805Z" fill="#F4C782"/>
<path d="M254.616 163.002L239.887 160.243L236.205 190.134L227 227.382C227 227.382 213.191 259.113 215.032 266.471L215.953 268.77L215.032 272.909L224.238 276.588L227.92 270.609C227.92 270.609 230.682 274.748 235.285 266.011C239.887 257.273 259.219 203.01 259.219 203.01L262.441 212.207C261.608 215.044 261.45 218.036 261.981 220.944C262.901 225.543 263.822 239.799 263.822 239.799C263.822 239.799 258.759 264.631 265.663 266.471L267.044 271.989L276.71 272.909L278.551 267.39C278.551 267.39 287.757 264.171 285.455 248.076C283.154 231.981 282.233 179.097 282.233 179.097L273.166 156.76L254.616 163.002Z" fill="#2F2E41"/>
<path d="M257.838 113.337C264.193 113.337 269.345 108.19 269.345 101.841C269.345 95.4912 264.193 90.344 257.838 90.344C251.483 90.344 246.331 95.4912 246.331 101.841C246.331 108.19 251.483 113.337 257.838 113.337Z" fill="#F4C782"/>
<path d="M250.243 108.968C250.243 108.968 256.687 116.786 243.799 122.764C230.912 128.742 253.005 153.575 253.005 153.575C253.005 153.575 278.781 143.918 276.479 125.063C276.479 125.063 260.83 122.304 264.512 109.428L250.243 108.968Z" fill="#F4C782"/>
<path d="M243.339 122.304C243.339 122.304 232.753 120.925 232.292 129.662C231.832 138.399 232.292 159.553 232.292 159.553C232.292 159.553 227.69 177.947 229.991 194.043C229.991 194.043 227.229 212.897 234.594 211.977C241.958 211.057 236.435 192.663 236.435 192.663L239.657 162.772L238.276 140.699L244.26 127.363L243.339 122.304Z" fill="#F4C782"/>
<path d="M273.807 124.336C273.807 124.336 283.844 124.144 284.305 131.502C284.765 138.859 281.083 161.392 281.083 161.392L275.559 164.152L270.496 148.516L273.807 124.336Z" fill="#F4C782"/>
<path d="M276.71 162.082L275.789 164.382L278.551 171.279C278.551 171.279 267.504 180.017 268.425 181.856C269.345 183.696 274.408 179.557 274.408 179.557L281.773 183.236C281.773 183.236 287.756 176.798 284.995 170.82C282.233 164.841 281.166 160.871 281.166 160.871C281.166 160.871 277.17 160.703 276.71 162.082Z" fill="#F4C782"/>
<path d="M241.268 120.695L239.887 135.87C239.887 135.87 233.443 142.308 240.807 151.046L239.887 157.944C239.887 157.944 256.917 157.024 260.139 157.944C263.361 158.863 273.312 157.203 273.312 157.203L273.487 151.965C273.487 151.965 278.09 145.527 276.709 135.87C275.328 126.213 276.709 122.994 276.709 122.994L273.487 122.534C273.487 122.534 271.416 136.56 257.147 137.94C257.147 137.94 239.427 139.549 244.49 120.695H241.268Z" fill="#F4DE4D"/>
<path d="M258.989 83.2162C258.989 83.2162 247.021 82.475 244.26 89.91C241.498 97.345 236.665 101.248 236.665 101.248C236.665 101.248 229.052 106.536 232.859 115.974C232.859 115.974 221.016 123.925 228.84 130.988C228.84 130.988 228.38 138.052 232.983 142.884C232.983 142.884 236.665 144.743 235.284 145.858C233.903 146.974 244.49 146.23 243.569 136.193C242.649 126.156 248.863 119.085 248.863 119.085C248.863 119.085 242.879 106.072 245.641 101.611C247.317 98.9021 248.037 96.8824 249.429 95.7134C250.204 95.078 250.923 94.377 251.578 93.6183C252.197 92.8364 253.038 92.2593 253.991 91.9625C254.943 91.6656 255.963 91.6629 256.917 91.9546C261.06 93.0699 261.981 96.4156 261.981 96.4156C261.981 96.4156 264.972 104.408 270.035 108.126C275.099 111.843 266.123 118.349 266.123 118.349C266.123 118.349 267.683 126.008 271.736 130.543C275.789 135.078 270.568 139.03 270.266 139.539C269.575 140.699 266.818 148.024 278.208 148.057C278.208 148.057 280.852 142.513 284.534 139.167C288.217 135.821 285.455 126.156 285.455 126.156C285.455 126.156 290.978 122.81 284.995 114.631C284.995 114.631 286.836 107.196 281.773 102.364C281.773 102.364 274.638 80.6139 258.989 83.2162Z" fill="#2F2E41"/>
<path d="M245.41 103.45C246.046 103.45 246.561 102.627 246.561 101.611C246.561 100.595 246.046 99.7712 245.41 99.7712C244.775 99.7712 244.26 100.595 244.26 101.611C244.26 102.627 244.775 103.45 245.41 103.45Z" fill="#FFB8B8"/>
<path d="M199.237 323.679H9.32065C9.32065 323.679 5.471 267.27 28.2481 266.628C51.0252 265.987 48.4588 291.628 77.0103 256.372C105.562 221.116 140.209 223.039 144.7 243.872C149.191 264.705 136.038 281.372 160.099 276.244C184.159 271.116 218.806 284.577 199.237 323.679Z" fill="#F4DE4D"/>
<path d="M101.073 323.692L100.432 323.667C101.927 286.527 109.712 262.664 115.98 249.186C122.786 234.551 129.344 228.627 129.409 228.569L129.835 229.048C129.771 229.105 123.289 234.971 116.538 249.506C110.305 262.928 102.562 286.692 101.073 323.692Z" fill="#F2F2F2"/>
<path d="M190.255 207.975H39.7974V88.7447H190.255V207.975ZM40.439 207.334H189.613V89.3857H40.439V207.334Z" fill="#3F3D56"/>
<path d="M52.95 143.232C55.962 143.232 58.4037 140.792 58.4037 137.783C58.4037 134.774 55.962 132.334 52.95 132.334C49.938 132.334 47.4963 134.774 47.4963 137.783C47.4963 140.792 49.938 143.232 52.95 143.232Z" fill="#F4DE4D"/>
<path d="M68.3487 143.232C71.3607 143.232 73.8024 140.792 73.8024 137.783C73.8024 134.774 71.3607 132.334 68.3487 132.334C65.3367 132.334 62.895 134.774 62.895 137.783C62.895 140.792 65.3367 143.232 68.3487 143.232Z" fill="#D0CDE1"/>
<path opacity="0.5" d="M83.7474 143.232C86.7594 143.232 89.201 140.792 89.201 137.783C89.201 134.774 86.7594 132.334 83.7474 132.334C80.7354 132.334 78.2937 134.774 78.2937 137.783C78.2937 140.792 80.7354 143.232 83.7474 143.232Z" fill="#D84727"/>
<path d="M99.1461 143.232C102.158 143.232 104.6 140.792 104.6 137.783C104.6 134.774 102.158 132.334 99.1461 132.334C96.1341 132.334 93.6924 134.774 93.6924 137.783C93.6924 140.792 96.1341 143.232 99.1461 143.232Z" fill="#F2F2F2"/>
<path d="M159.778 135.219H114.865V140.347H159.778V135.219Z" fill="#F2F2F2"/>
<path d="M101.392 188.744C109.542 188.744 116.149 182.143 116.149 174.001C116.149 165.858 109.542 159.257 101.392 159.257C93.2417 159.257 86.6348 165.858 86.6348 174.001C86.6348 182.143 93.2417 188.744 101.392 188.744Z" fill="#F2F2F2"/>
<path d="M101.453 178.439L94.068 171.061C93.8273 170.821 93.6921 170.495 93.6921 170.155C93.6921 169.815 93.8273 169.488 94.068 169.248C94.3087 169.008 94.6351 168.872 94.9754 168.872C95.3158 168.872 95.6422 169.008 95.8829 169.248L101.33 174.69L118.713 154.886C118.824 154.76 118.959 154.656 119.11 154.582C119.261 154.507 119.425 154.463 119.593 154.452C119.762 154.441 119.93 154.463 120.09 154.518C120.249 154.572 120.397 154.657 120.523 154.768C120.65 154.879 120.754 155.014 120.828 155.165C120.903 155.316 120.947 155.48 120.958 155.648C120.969 155.816 120.947 155.984 120.892 156.144C120.838 156.303 120.753 156.45 120.642 156.577L101.453 178.439Z" fill="#F4DE4D"/>
</g>
<defs>
<clipPath id="clip0_100_7452">
<rect width="367" height="241" fill="white"/>
</clipPath>
</defs>
</svg>
