<svg width="453" height="82" viewBox="0 0 453 82" fill="none" xmlns="http://www.w3.org/2000/svg">
<path d="M2.86 71.38H3.76C4.52 71.38 4.9 71.14 4.9 70.66V59.46L2.32 60.6V59.48L7.3 57.46V70.66C7.3 70.9133 7.39333 71.1 7.58 71.22C7.78 71.3267 8.07333 71.38 8.46 71.38H9.34V72H2.86V71.38ZM14.8536 72.2C14.4403 72.2 14.1069 72.0733 13.8536 71.82C13.6136 71.5667 13.4936 71.2467 13.4936 70.86C13.4936 70.46 13.6136 70.14 13.8536 69.9C14.1069 69.6467 14.4403 69.52 14.8536 69.52C15.2536 69.52 15.5736 69.6467 15.8136 69.9C16.0669 70.14 16.1936 70.46 16.1936 70.86C16.1936 71.2467 16.0669 71.5667 15.8136 71.82C15.5736 72.0733 15.2536 72.2 14.8536 72.2ZM30.9084 72.2C28.7218 72.2 27.0484 71.5667 25.8884 70.3C24.7284 69.0333 24.1484 67.2667 24.1484 65C24.1484 63.52 24.4151 62.24 24.9484 61.16C25.4818 60.08 26.2551 59.2533 27.2684 58.68C28.2951 58.0933 29.5351 57.8 30.9884 57.8C31.8551 57.8 32.6151 57.92 33.2684 58.16C33.9351 58.3867 34.4951 58.66 34.9484 58.98C34.9618 58.98 34.9884 58.9933 35.0284 59.02C35.0684 59.0467 35.1018 59.06 35.1284 59.06C35.2484 59.06 35.3084 58.9667 35.3084 58.78V57.9H36.1484V61.84H35.4484C35.3284 60.84 34.8951 60.08 34.1484 59.56C33.4151 59.0267 32.5284 58.76 31.4884 58.76C29.9284 58.76 28.7151 59.32 27.8484 60.44C26.9951 61.56 26.5684 63.08 26.5684 65C26.5684 66.96 26.9618 68.4933 27.7484 69.6C28.5351 70.7067 29.7018 71.26 31.2484 71.26C32.1818 71.26 33.0418 71.0467 33.8284 70.62C34.6284 70.18 35.1951 69.4933 35.5284 68.56H36.4284C36.1884 69.6667 35.5751 70.5533 34.5884 71.22C33.6018 71.8733 32.3751 72.2 30.9084 72.2ZM50.0398 71.4V72H44.8798V71.4H45.2198C45.5265 71.4 45.7732 71.3467 45.9598 71.24C46.1465 71.1333 46.2398 70.9667 46.2398 70.74V65.38C46.2398 64.7 46.0732 64.1933 45.7398 63.86C45.4065 63.5133 44.9265 63.34 44.2998 63.34C43.8732 63.34 43.4532 63.4533 43.0398 63.68C42.6398 63.9067 42.3065 64.2533 42.0398 64.72C41.7732 65.1867 41.6398 65.7533 41.6398 66.42V70.74C41.6398 70.9667 41.7332 71.1333 41.9198 71.24C42.1065 71.3467 42.3532 71.4 42.6598 71.4H42.9998V72H37.8398V71.4H38.2598C38.5932 71.4 38.8532 71.3467 39.0398 71.24C39.2398 71.1333 39.3398 70.9667 39.3398 70.74V59.52C39.3398 59.2 39.1798 59.04 38.8598 59.04C38.7532 59.04 38.5732 59.0867 38.3198 59.18L38.1598 58.66L41.0798 57.66H41.6398V64.06C41.9465 63.58 42.4065 63.1867 43.0198 62.88C43.6332 62.56 44.2998 62.4 45.0198 62.4C46.1665 62.4 47.0398 62.6467 47.6398 63.14C48.2398 63.6333 48.5398 64.3 48.5398 65.14V70.74C48.5398 70.9667 48.6332 71.1333 48.8198 71.24C49.0198 71.3467 49.2865 71.4 49.6198 71.4H50.0398ZM53.7477 66.9C53.7343 66.9933 53.7277 67.1333 53.7277 67.32C53.7277 68.5333 54.0143 69.5133 54.5877 70.26C55.161 71.0067 55.921 71.38 56.8677 71.38C57.7477 71.38 58.4677 71.16 59.0277 70.72C59.5877 70.2667 59.9543 69.5733 60.1277 68.64H60.7877C60.681 69.6933 60.2677 70.5533 59.5477 71.22C58.8277 71.8733 57.8277 72.2 56.5477 72.2C54.9077 72.2 53.6343 71.78 52.7277 70.94C51.8343 70.0867 51.3877 68.8733 51.3877 67.3C51.3877 65.78 51.8343 64.5867 52.7277 63.72C53.621 62.84 54.8543 62.4 56.4277 62.4C57.881 62.4 58.981 62.7733 59.7277 63.52C60.4743 64.2533 60.8477 65.2133 60.8477 66.4V66.9H53.7477ZM56.5077 63.26C55.7877 63.26 55.201 63.5133 54.7477 64.02C54.2943 64.5133 53.9943 65.18 53.8477 66.02H58.8277C58.8143 65.3267 58.621 64.6933 58.2477 64.12C57.8877 63.5467 57.3077 63.26 56.5077 63.26ZM67.5327 72.2C65.8927 72.2 64.626 71.78 63.7327 70.94C62.8527 70.1 62.4127 68.8867 62.4127 67.3C62.4127 65.7933 62.8593 64.6 63.7527 63.72C64.646 62.84 65.8927 62.4 67.4927 62.4C68.146 62.4 68.7727 62.4933 69.3727 62.68C69.9727 62.8533 70.4727 63.16 70.8727 63.6L71.0727 62.4H71.6527V65.84H71.0927C70.9593 64.9733 70.6327 64.3267 70.1127 63.9C69.5927 63.4733 68.9393 63.26 68.1527 63.26C67.0593 63.26 66.2193 63.64 65.6327 64.4C65.046 65.1467 64.7527 66.12 64.7527 67.32C64.7527 68.5333 65.026 69.5133 65.5727 70.26C66.1327 71.0067 66.886 71.38 67.8327 71.38C69.646 71.38 70.7193 70.4667 71.0527 68.64H71.7127C71.606 69.7067 71.1993 70.5667 70.4927 71.22C69.7993 71.8733 68.8127 72.2 67.5327 72.2ZM84.9991 71.4V72H81.4391L77.1791 67.98L77.0191 68.12V70.72C77.0191 70.9467 77.1124 71.12 77.2991 71.24C77.4991 71.3467 77.7591 71.4 78.0791 71.4H78.4591V72H73.2191V71.4H73.6391C73.9724 71.4 74.2324 71.3467 74.4191 71.24C74.6191 71.1333 74.7191 70.9667 74.7191 70.74V59.52C74.7191 59.2 74.5591 59.04 74.2391 59.04C74.1324 59.04 73.9524 59.0867 73.6991 59.18L73.5391 58.66L76.4591 57.66H77.0191V66.96L80.7591 63.94C80.8924 63.8467 80.9591 63.74 80.9591 63.62C80.9591 63.5 80.8857 63.4 80.7391 63.32C80.6057 63.24 80.4457 63.2 80.2591 63.2H79.7591V62.6H84.0391V63.2H83.5391C83.3657 63.2 83.1524 63.26 82.8991 63.38C82.6591 63.5 82.4324 63.6467 82.2191 63.82L78.6391 66.78L82.8191 70.74C83.0324 70.94 83.2924 71.1 83.5991 71.22C83.9191 71.34 84.1991 71.4 84.4391 71.4H84.9991ZM90.7392 72.2C89.0459 72.2 87.7392 71.78 86.8192 70.94C85.8992 70.0867 85.4392 68.8733 85.4392 67.3C85.4392 65.7267 85.8992 64.52 86.8192 63.68C87.7392 62.8267 89.0459 62.4 90.7392 62.4C92.4192 62.4 93.7192 62.8267 94.6392 63.68C95.5592 64.52 96.0192 65.7267 96.0192 67.3C96.0192 68.8733 95.5592 70.0867 94.6392 70.94C93.7192 71.78 92.4192 72.2 90.7392 72.2ZM90.7392 71.32C91.6592 71.32 92.3859 70.9733 92.9192 70.28C93.4525 69.5867 93.7192 68.5933 93.7192 67.3C93.7192 66.02 93.4525 65.0333 92.9192 64.34C92.3859 63.6467 91.6592 63.3 90.7392 63.3C89.8059 63.3 89.0725 63.6467 88.5392 64.34C88.0059 65.0333 87.7392 66.02 87.7392 67.3C87.7392 68.5933 88.0059 69.5867 88.5392 70.28C89.0725 70.9733 89.8059 71.32 90.7392 71.32ZM108.219 71.36C108.419 71.36 108.666 71.3067 108.959 71.2V71.62C108.479 72.0067 107.826 72.2 106.999 72.2C106.533 72.2 106.153 72.0733 105.859 71.82C105.579 71.5667 105.439 71.1933 105.439 70.7V70.54C105.146 71.02 104.686 71.42 104.059 71.74C103.446 72.0467 102.773 72.2 102.039 72.2C100.893 72.2 100.019 71.96 99.4194 71.48C98.8194 70.9867 98.5194 70.32 98.5194 69.48V64.36C98.5194 64.04 98.366 63.88 98.0594 63.88C97.9394 63.88 97.7527 63.9267 97.4994 64.02L97.3594 63.5L100.259 62.5H100.819V69.22C100.819 69.9 100.986 70.4133 101.319 70.76C101.666 71.0933 102.146 71.26 102.759 71.26C103.186 71.26 103.606 71.1467 104.019 70.92C104.433 70.6933 104.773 70.3533 105.039 69.9C105.306 69.4333 105.439 68.8667 105.439 68.2V64.36C105.439 64.04 105.279 63.88 104.959 63.88C104.853 63.88 104.673 63.9267 104.419 64.02L104.259 63.5L107.259 62.5H107.739V70.72C107.739 71.1467 107.899 71.36 108.219 71.36ZM117.818 70.04C117.751 70.7867 117.458 71.3333 116.938 71.68C116.431 72.0267 115.778 72.2 114.978 72.2C113.911 72.2 113.091 71.9933 112.518 71.58C111.945 71.1667 111.658 70.46 111.658 69.46V63.48H110.178V62.6H111.658V60.86L113.438 59.92H113.978V62.6H116.778V63.48H113.978V69.42C113.978 70.0867 114.098 70.58 114.338 70.9C114.578 71.22 114.951 71.38 115.458 71.38C115.871 71.38 116.231 71.2733 116.538 71.06C116.845 70.8467 117.025 70.5067 117.078 70.04H117.818Z" fill="#999999"/>
<line x1="148" y1="65.5" x2="262" y2="65.5" stroke="#333333"/>
<path d="M287.68 70.74C287.813 70.0867 288.073 69.4933 288.46 68.96C288.847 68.4133 289.273 67.94 289.74 67.54C290.207 67.1267 290.82 66.6267 291.58 66.04C292.687 65.1867 293.573 64.38 294.24 63.62C294.907 62.8467 295.24 62.04 295.24 61.2C295.24 60.4667 295.047 59.9 294.66 59.5C294.287 59.1 293.713 58.9 292.94 58.9C292.193 58.9 291.62 59.0867 291.22 59.46C290.82 59.8333 290.62 60.3667 290.62 61.06C290.62 61.3133 290.513 61.52 290.3 61.68C290.087 61.84 289.807 61.92 289.46 61.92C289.1 61.92 288.793 61.8267 288.54 61.64C288.3 61.4533 288.18 61.18 288.18 60.82C288.18 60.2867 288.387 59.7867 288.8 59.32C289.227 58.8533 289.813 58.4867 290.56 58.22C291.32 57.94 292.18 57.8 293.14 57.8C294.607 57.8 295.8 58.1067 296.72 58.72C297.653 59.32 298.12 60.2533 298.12 61.52C298.12 62.5333 297.72 63.4333 296.92 64.22C296.12 65.0067 295.053 65.7933 293.72 66.58C292.68 67.1933 291.867 67.74 291.28 68.22C290.707 68.6867 290.373 69.2133 290.28 69.8V70H296.1C296.553 70 296.887 69.84 297.1 69.52C297.313 69.2 297.487 68.7733 297.62 68.24H298.3L298.02 72H287.68V70.74ZM302.422 72.2C301.929 72.2 301.536 72.0533 301.242 71.76C300.962 71.4667 300.822 71.0867 300.822 70.62C300.822 70.1533 300.962 69.7733 301.242 69.48C301.536 69.1867 301.929 69.04 302.422 69.04C302.889 69.04 303.269 69.1933 303.562 69.5C303.856 69.7933 304.002 70.1667 304.002 70.62C304.002 71.0733 303.856 71.4533 303.562 71.76C303.269 72.0533 302.889 72.2 302.422 72.2ZM318.811 72.2C316.518 72.2 314.771 71.56 313.571 70.28C312.384 69 311.791 67.24 311.791 65C311.791 63.5333 312.058 62.26 312.591 61.18C313.124 60.1 313.918 59.2667 314.971 58.68C316.024 58.0933 317.311 57.8 318.831 57.8C320.378 57.8 321.738 58.1867 322.911 58.96C322.964 59.0133 323.024 59.04 323.091 59.04C323.198 59.04 323.251 58.96 323.251 58.8V57.9H324.271V62.02H323.411C323.278 60.9933 322.844 60.2267 322.111 59.72C321.378 59.2 320.511 58.94 319.511 58.94C318.071 58.94 316.938 59.48 316.111 60.56C315.298 61.64 314.891 63.12 314.891 65C314.891 66.9067 315.258 68.4 315.991 69.48C316.724 70.5467 317.798 71.08 319.211 71.08C320.144 71.08 320.998 70.88 321.771 70.48C322.544 70.08 323.111 69.4333 323.471 68.54H324.551C324.298 69.62 323.664 70.5 322.651 71.18C321.651 71.86 320.371 72.2 318.811 72.2ZM331.693 72.2C329.866 72.2 328.473 71.7867 327.513 70.96C326.553 70.12 326.073 68.9 326.073 67.3C326.073 65.7133 326.553 64.5 327.513 63.66C328.473 62.82 329.866 62.4 331.693 62.4C333.519 62.4 334.913 62.82 335.873 63.66C336.833 64.5 337.313 65.7133 337.313 67.3C337.313 68.9 336.833 70.12 335.873 70.96C334.913 71.7867 333.519 72.2 331.693 72.2ZM331.693 71.16C332.519 71.16 333.173 70.8333 333.653 70.18C334.133 69.5133 334.373 68.5533 334.373 67.3C334.373 66.06 334.133 65.1133 333.653 64.46C333.173 63.8067 332.519 63.48 331.693 63.48C330.853 63.48 330.193 63.8067 329.713 64.46C329.246 65.1133 329.013 66.06 329.013 67.3C329.013 68.5533 329.246 69.5133 329.713 70.18C330.193 70.8333 330.853 71.16 331.693 71.16ZM351.699 71.28V72H345.779V71.28H346.159C346.479 71.28 346.725 71.22 346.899 71.1C347.085 70.98 347.179 70.8 347.179 70.56V65.44C347.179 64.1733 346.599 63.54 345.439 63.54C345.079 63.54 344.712 63.6467 344.339 63.86C343.979 64.0733 343.672 64.4133 343.419 64.88C343.179 65.3333 343.059 65.9067 343.059 66.6V70.56C343.059 70.8 343.145 70.98 343.319 71.1C343.505 71.22 343.759 71.28 344.079 71.28H344.439V72H338.539V71.28H339.039C339.385 71.28 339.652 71.22 339.839 71.1C340.025 70.98 340.119 70.8 340.119 70.56V64.7C340.119 64.3133 339.932 64.12 339.559 64.12C339.479 64.12 339.319 64.16 339.079 64.24L338.899 63.62L342.419 62.46H343.059V64C343.365 63.52 343.832 63.1333 344.459 62.84C345.085 62.5467 345.745 62.4 346.439 62.4C347.652 62.4 348.565 62.6533 349.179 63.16C349.805 63.6533 350.119 64.3267 350.119 65.18V70.56C350.119 70.8 350.212 70.98 350.399 71.1C350.585 71.22 350.852 71.28 351.199 71.28H351.699ZM353.027 71.28H353.527C353.874 71.28 354.141 71.22 354.327 71.1C354.514 70.98 354.607 70.8 354.607 70.56V63.66H352.807V62.6H354.607V60.98C354.607 59.7933 355.047 58.9267 355.927 58.38C356.821 57.8333 358.174 57.56 359.987 57.56C361.481 57.56 362.694 57.74 363.627 58.1C364.574 58.4467 365.047 59.0067 365.047 59.78C365.047 60.2333 364.921 60.5733 364.667 60.8C364.427 61.0267 364.094 61.14 363.667 61.14C363.254 61.14 362.927 61.04 362.687 60.84C362.461 60.64 362.347 60.3333 362.347 59.92C362.347 59.4133 362.114 59.0667 361.647 58.88C361.194 58.68 360.647 58.58 360.007 58.58C359.314 58.58 358.727 58.74 358.247 59.06C357.781 59.3667 357.547 59.86 357.547 60.54V62.6H364.287L364.767 62.46H365.407V70.56C365.407 70.8 365.501 70.98 365.687 71.1C365.874 71.22 366.141 71.28 366.487 71.28H367.007V72H360.887V71.28H361.407C361.754 71.28 362.021 71.22 362.207 71.1C362.394 70.98 362.487 70.8 362.487 70.56V63.66H357.547V70.56C357.547 70.8 357.641 70.98 357.827 71.1C358.014 71.22 358.274 71.28 358.607 71.28H359.127V72H353.027V71.28ZM375.785 62.4C376.265 62.4 376.672 62.4933 377.005 62.68C377.352 62.8533 377.525 63.14 377.525 63.54C377.525 63.9133 377.425 64.1933 377.225 64.38C377.039 64.5667 376.785 64.66 376.465 64.66C376.279 64.66 376.125 64.6267 376.005 64.56C375.885 64.4933 375.772 64.4 375.665 64.28C375.532 64.16 375.419 64.0733 375.325 64.02C375.232 63.9667 375.105 63.94 374.945 63.94C374.665 63.94 374.365 64.0733 374.045 64.34C373.739 64.6067 373.465 64.98 373.225 65.46C372.999 65.94 372.865 66.4933 372.825 67.12V70.54C372.825 70.78 372.919 70.9667 373.105 71.1C373.292 71.22 373.559 71.28 373.905 71.28H374.345V72H368.305V71.28H368.825C369.159 71.28 369.419 71.22 369.605 71.1C369.792 70.98 369.885 70.8 369.885 70.56V64.7C369.885 64.5 369.832 64.3533 369.725 64.26C369.619 64.1667 369.485 64.12 369.325 64.12C369.192 64.12 369.032 64.16 368.845 64.24L368.685 63.62L372.245 62.46H372.825V64.66C373.052 63.94 373.459 63.3867 374.045 63C374.632 62.6 375.212 62.4 375.785 62.4ZM397.711 71.28V72H391.791V71.28H392.171C392.491 71.28 392.738 71.22 392.911 71.1C393.098 70.98 393.191 70.8 393.191 70.56V65.44C393.191 64.7733 393.071 64.2933 392.831 64C392.604 63.6933 392.218 63.54 391.671 63.54C391.324 63.54 390.984 63.6467 390.651 63.86C390.318 64.0733 390.044 64.4133 389.831 64.88C389.618 65.3333 389.511 65.9067 389.511 66.6V70.56C389.511 70.8 389.604 70.98 389.791 71.1C389.978 71.22 390.244 71.28 390.591 71.28H391.091V72H385.171V71.28H385.551C385.871 71.28 386.118 71.22 386.291 71.1C386.478 70.98 386.571 70.8 386.571 70.56V65.44C386.571 64.7733 386.451 64.2933 386.211 64C385.984 63.6933 385.598 63.54 385.051 63.54C384.718 63.54 384.384 63.6467 384.051 63.86C383.731 64.0733 383.458 64.4133 383.231 64.88C383.018 65.3333 382.911 65.9067 382.911 66.6V70.56C382.911 70.8 382.998 70.98 383.171 71.1C383.358 71.22 383.611 71.28 383.931 71.28H384.291V72H378.391V71.28H378.891C379.238 71.28 379.504 71.22 379.691 71.1C379.878 70.98 379.971 70.8 379.971 70.56V64.7C379.971 64.3133 379.784 64.12 379.411 64.12C379.331 64.12 379.171 64.16 378.931 64.24L378.751 63.62L382.271 62.46H382.911V63.98C383.204 63.4867 383.631 63.1 384.191 62.82C384.751 62.54 385.371 62.4 386.051 62.4C387.904 62.4 389.018 63.0067 389.391 64.22C389.644 63.6733 390.064 63.2333 390.651 62.9C391.251 62.5667 391.924 62.4 392.671 62.4C393.871 62.4 394.744 62.6467 395.291 63.14C395.851 63.6333 396.131 64.3133 396.131 65.18V70.56C396.131 70.8 396.224 70.98 396.411 71.1C396.598 71.22 396.864 71.28 397.211 71.28H397.711ZM401.732 72.2C400.879 72.2 400.185 72.0133 399.652 71.64C399.119 71.2667 398.852 70.7467 398.852 70.08C398.852 69.0667 399.372 68.2533 400.412 67.64C401.465 67.0133 403.059 66.5533 405.192 66.26V65.42C405.192 64.78 404.999 64.3 404.612 63.98C404.239 63.66 403.732 63.5 403.092 63.5C402.612 63.5 402.185 63.5933 401.812 63.78C401.439 63.9667 401.252 64.16 401.252 64.36C401.252 64.4267 401.265 64.5333 401.292 64.68C401.332 64.8267 401.352 64.94 401.352 65.02C401.352 65.18 401.259 65.3467 401.072 65.52C400.885 65.68 400.639 65.76 400.332 65.76C399.959 65.76 399.679 65.66 399.492 65.46C399.319 65.2467 399.232 64.98 399.232 64.66C399.232 63.94 399.639 63.3867 400.452 63C401.279 62.6 402.365 62.4 403.712 62.4C405.085 62.4 406.165 62.6867 406.952 63.26C407.752 63.8333 408.152 64.5933 408.152 65.54V70.54C408.152 70.78 408.192 70.9533 408.272 71.06C408.365 71.1533 408.499 71.2 408.672 71.2C408.872 71.2 409.132 71.1467 409.452 71.04V71.56C409.185 71.76 408.852 71.9133 408.452 72.02C408.052 72.14 407.639 72.2 407.212 72.2C406.665 72.2 406.199 72.1067 405.812 71.92C405.439 71.72 405.252 71.4067 405.252 70.98V70.78C404.785 71.3 404.239 71.6667 403.612 71.88C402.985 72.0933 402.359 72.2 401.732 72.2ZM403.192 71.1C403.552 71.1 403.925 70.98 404.312 70.74C404.712 70.4867 405.005 70.1867 405.192 69.84V67.08C404.005 67.4 403.132 67.8133 402.572 68.32C402.025 68.8133 401.752 69.3267 401.752 69.86C401.752 70.2467 401.879 70.5533 402.132 70.78C402.399 70.9933 402.752 71.1 403.192 71.1ZM418.423 69.82C418.356 70.6467 418.043 71.2533 417.483 71.64C416.936 72.0133 416.203 72.2 415.283 72.2C414.123 72.2 413.216 71.9867 412.563 71.56C411.91 71.1333 411.583 70.4067 411.583 69.38V63.66H410.203V62.6H411.583V60.84L413.903 59.88H414.523V62.6H417.303V63.66H414.523V69.36C414.523 70.6133 415.01 71.24 415.983 71.24C416.396 71.24 416.756 71.1267 417.063 70.9C417.37 70.6733 417.55 70.3133 417.603 69.82H418.423ZM422.491 60.86C422.037 60.86 421.671 60.7267 421.391 60.46C421.111 60.18 420.971 59.82 420.971 59.38C420.971 58.94 421.111 58.5867 421.391 58.32C421.671 58.04 422.037 57.9 422.491 57.9C422.944 57.9 423.311 58.04 423.591 58.32C423.871 58.6 424.011 58.9533 424.011 59.38C424.011 59.8067 423.871 60.16 423.591 60.44C423.311 60.72 422.944 60.86 422.491 60.86ZM419.651 71.28H420.171C420.517 71.28 420.784 71.22 420.971 71.1C421.157 70.98 421.251 70.8 421.251 70.56V64.7C421.251 64.4867 421.191 64.3333 421.071 64.24C420.964 64.1467 420.831 64.1 420.671 64.1C420.631 64.1 420.564 64.1133 420.471 64.14C420.391 64.1667 420.297 64.1933 420.191 64.22L420.031 63.58L423.531 62.46H424.171V70.56C424.171 70.8 424.264 70.98 424.451 71.1C424.637 71.22 424.904 71.28 425.251 71.28H425.771V72H419.651V71.28ZM432.647 72.2C430.82 72.2 429.427 71.7867 428.467 70.96C427.507 70.12 427.027 68.9 427.027 67.3C427.027 65.7133 427.507 64.5 428.467 63.66C429.427 62.82 430.82 62.4 432.647 62.4C434.473 62.4 435.867 62.82 436.827 63.66C437.787 64.5 438.267 65.7133 438.267 67.3C438.267 68.9 437.787 70.12 436.827 70.96C435.867 71.7867 434.473 72.2 432.647 72.2ZM432.647 71.16C433.473 71.16 434.127 70.8333 434.607 70.18C435.087 69.5133 435.327 68.5533 435.327 67.3C435.327 66.06 435.087 65.1133 434.607 64.46C434.127 63.8067 433.473 63.48 432.647 63.48C431.807 63.48 431.147 63.8067 430.667 64.46C430.2 65.1133 429.967 66.06 429.967 67.3C429.967 68.5533 430.2 69.5133 430.667 70.18C431.147 70.8333 431.807 71.16 432.647 71.16ZM452.653 71.28V72H446.733V71.28H447.113C447.433 71.28 447.679 71.22 447.853 71.1C448.039 70.98 448.133 70.8 448.133 70.56V65.44C448.133 64.1733 447.553 63.54 446.393 63.54C446.033 63.54 445.666 63.6467 445.293 63.86C444.933 64.0733 444.626 64.4133 444.373 64.88C444.133 65.3333 444.013 65.9067 444.013 66.6V70.56C444.013 70.8 444.099 70.98 444.273 71.1C444.459 71.22 444.713 71.28 445.033 71.28H445.393V72H439.493V71.28H439.993C440.339 71.28 440.606 71.22 440.793 71.1C440.979 70.98 441.073 70.8 441.073 70.56V64.7C441.073 64.3133 440.886 64.12 440.513 64.12C440.433 64.12 440.273 64.16 440.033 64.24L439.853 63.62L443.373 62.46H444.013V64C444.319 63.52 444.786 63.1333 445.413 62.84C446.039 62.5467 446.699 62.4 447.393 62.4C448.606 62.4 449.519 62.6533 450.133 63.16C450.759 63.6533 451.073 64.3267 451.073 65.18V70.56C451.073 70.8 451.166 70.98 451.353 71.1C451.539 71.22 451.806 71.28 452.153 71.28H452.653Z" fill="#F4DE4D"/>
<path d="M58.2948 14.3966L58.2946 14.3965L58.2853 14.4063C57.8518 14.8634 57.1483 14.8783 56.6666 14.4271C56.2313 13.987 56.2329 13.2495 56.6713 12.8116L61.6792 7.80891C62.1286 7.39022 62.91 7.40559 63.3082 7.80337L68.3217 12.8116C68.7617 13.2511 68.7617 13.9923 68.3217 14.4319C68.0943 14.6591 67.7963 14.7794 67.51 14.7794C67.2236 14.7794 66.9257 14.6591 66.6983 14.4319L64.5093 12.2452L63.6559 11.3927V12.5989V19.7938C63.6559 20.4342 63.1388 20.9515 62.4965 20.9515C61.8542 20.9515 61.3371 20.4342 61.3371 19.7938V12.5636V11.3574L60.4838 12.2099L58.2948 14.3966Z" stroke="#999999"/>
<path d="M68.6856 20.7201L68.6851 20.7195C68.2427 20.253 68.2633 19.5468 68.7366 19.099C69.2039 18.6567 69.9117 18.6774 70.3603 19.1504L70.362 19.1522L70.373 19.164L70.4162 19.2101L70.5806 19.3856L71.1708 20.0156L72.9929 21.9608C74.3395 23.3987 75.7419 24.8965 75.9706 25.1425C76.3736 25.5761 76.599 26.1054 76.4563 26.6044L76.4562 26.6044L76.4543 26.6114L73.1369 38.8799C72.9488 39.5171 72.364 39.9616 71.7117 39.9616H53.2819C52.6295 39.9616 52.0448 39.5171 51.8566 38.8799L48.5392 26.6114L48.5393 26.6114L48.5373 26.6044C48.4691 26.366 48.4972 26.091 48.6002 25.8141C48.7035 25.5366 48.8676 25.2982 49.0101 25.1558L49.0178 25.1481L49.0252 25.1401C49.217 24.9311 50.6175 23.4353 51.9741 21.9874C52.6515 21.2644 53.3168 20.5546 53.8127 20.0256L54.4099 19.3886L54.5764 19.211L54.6202 19.1643L54.6314 19.1524L54.6341 19.1495C55.0693 18.6917 55.7792 18.677 56.2621 19.1039C56.7304 19.552 56.7492 20.2547 56.3085 20.7195L56.3079 20.7201L53.3069 23.8943L52.5094 24.7378H53.6702H71.3233H72.4841L71.6866 23.8943L68.6856 20.7201ZM56.7419 36.8351C57.6177 36.8351 58.3364 36.1179 58.3364 35.2417V29.4929C58.3364 28.6167 57.6177 27.8995 56.7419 27.8995C55.866 27.8995 55.1474 28.6167 55.1474 29.4929V35.2417C55.1474 36.1179 55.866 36.8351 56.7419 36.8351ZM62.4968 36.8351C63.3726 36.8351 64.0913 36.1179 64.0913 35.2417V29.4929C64.0913 28.6167 63.3726 27.8995 62.4968 27.8995C61.6209 27.8995 60.9023 28.6167 60.9023 29.4929V35.2417C60.9023 36.1179 61.6209 36.8351 62.4968 36.8351ZM68.2517 36.8351C69.1275 36.8351 69.8462 36.1179 69.8462 35.2417V29.4929C69.8462 28.6167 69.1275 27.8995 68.2517 27.8995C67.3758 27.8995 66.6572 28.6167 66.6572 29.4929V35.2417C66.6572 36.1179 67.3758 36.8351 68.2517 36.8351Z" stroke="#999999"/>
<path fill-rule="evenodd" clip-rule="evenodd" d="M369.013 11.88V15.0134H364V11.88C364 10.8417 364.842 10 365.88 10H367.133C368.172 10 369.013 10.8417 369.013 11.88ZM392.2 10H373.4C372.362 10 371.52 10.8417 371.52 11.88V36.947C371.52 37.9853 372.362 38.827 373.4 38.827H392.2C393.239 38.827 394.08 37.9853 394.08 36.947V11.88C394.08 10.8417 393.239 10 392.2 10ZM380.11 29.87L377.603 32.3767C377.359 32.6213 376.962 32.6213 376.717 32.3767L375.464 31.1233C375.226 30.8774 375.23 30.4866 375.471 30.2448C375.713 30.0031 376.104 29.9997 376.35 30.2372L377.16 31.0475L379.224 28.9838C379.47 28.7464 379.861 28.7498 380.102 28.9915C380.344 29.2332 380.347 29.6241 380.11 29.87ZM377.603 26.1099L380.11 23.6032C380.347 23.3573 380.344 22.9665 380.102 22.7247C379.861 22.483 379.47 22.4796 379.224 22.7171L377.16 24.7807L376.35 23.9705C376.104 23.733 375.713 23.7364 375.471 23.9781C375.23 24.2198 375.226 24.6107 375.464 24.8566L376.717 26.1099C376.962 26.3546 377.359 26.3546 377.603 26.1099ZM380.11 17.3365L377.603 19.8432C377.359 20.0878 376.962 20.0878 376.717 19.8432L375.464 18.5898C375.226 18.3439 375.23 17.9531 375.471 17.7113C375.713 17.4696 376.104 17.4662 376.35 17.7037L377.16 18.514L379.224 16.4503C379.381 16.2874 379.614 16.2221 379.833 16.2795C380.052 16.3368 380.223 16.5079 380.281 16.727C380.338 16.9461 380.273 17.1791 380.11 17.3365ZM382.174 31.3069H389.694C390.04 31.3069 390.32 31.0264 390.32 30.6803C390.32 30.3342 390.04 30.0536 389.694 30.0536H382.174C381.828 30.0536 381.547 30.3342 381.547 30.6803C381.547 31.0264 381.828 31.3069 382.174 31.3069ZM389.694 25.0402H382.174C381.828 25.0402 381.547 24.7596 381.547 24.4135C381.547 24.0674 381.828 23.7868 382.174 23.7868H389.694C390.04 23.7868 390.32 24.0674 390.32 24.4135C390.32 24.7596 390.04 25.0402 389.694 25.0402ZM382.174 18.7734H389.694C390.04 18.7734 390.32 18.4929 390.32 18.1468C390.32 17.8007 390.04 17.5201 389.694 17.5201H382.174C381.828 17.5201 381.547 17.8007 381.547 18.1468C381.547 18.4929 381.828 18.7734 382.174 18.7734ZM369.013 16.2667H364V36.947C364 37.9853 364.842 38.827 365.88 38.827H367.133C368.172 38.827 369.013 37.9853 369.013 36.947V16.2667Z" fill="#F4DE4D"/>
</svg>
