<svg width="36" height="36" viewBox="0 0 36 36" fill="none" xmlns="http://www.w3.org/2000/svg">
<rect x="0.5" y="0.5" width="35" height="35" stroke="#F4DE4D"/>
<path fill-rule="evenodd" clip-rule="evenodd" d="M25.6972 11.2972H22.0601L21.7033 9.87001C21.5755 9.3587 21.1161 9.00001 20.589 9H15.491C14.964 9.00001 14.5046 9.3587 14.3768 9.87001L14.02 11.2972H10.3829C10.1714 11.2972 10 11.4686 10 11.68C10 11.8915 10.1714 12.0629 10.3829 12.0629H11.5697L12.2807 26.2866C12.3116 26.8977 12.816 27.3772 13.4278 27.3772H22.6912C23.3032 27.3772 23.8077 26.8972 23.8382 26.2859L24.5493 12.0629H25.6972C25.9087 12.0629 26.0801 11.8915 26.0801 11.68C26.0801 11.4686 25.9087 11.2972 25.6972 11.2972ZM16.1255 22.4001C16.1255 22.6115 15.9541 22.7829 15.7427 22.7829C15.5312 22.7829 15.3598 22.6115 15.3598 22.4001V16.2743C15.3598 16.0629 15.5312 15.8915 15.7427 15.8915C15.9541 15.8915 16.1255 16.0629 16.1255 16.2743V22.4001ZM18.0397 23.5486C18.2512 23.5486 18.4226 23.3772 18.4226 23.1658V15.5086C18.4226 15.2972 18.2512 15.1257 18.0397 15.1257C17.8283 15.1257 17.6569 15.2972 17.6569 15.5086V23.1658C17.6569 23.3772 17.8283 23.5486 18.0397 23.5486ZM20.7204 22.4001C20.7204 22.6115 20.549 22.7829 20.3376 22.7829C20.1261 22.7829 19.9547 22.6115 19.9547 22.4001V16.2743C19.9547 16.0629 20.1261 15.8915 20.3376 15.8915C20.549 15.8915 20.7204 16.0629 20.7204 16.2743V22.4001ZM15.1194 10.0558L14.8091 11.2971H21.2705L20.9602 10.0558C20.9178 9.88524 20.7645 9.76552 20.5887 9.76571H15.4908C15.315 9.76552 15.1618 9.88524 15.1194 10.0558Z" fill="#F4DE4D"/>
</svg>
