<svg width="148" height="32" viewBox="0 0 148 32" fill="none" xmlns="http://www.w3.org/2000/svg">
<path d="M33.872 19.896C34.064 19.896 34.2133 19.944 34.32 20.04C34.4267 20.136 34.48 20.2693 34.48 20.44C34.48 20.6213 34.4267 20.76 34.32 20.856C34.224 20.952 34.0747 21 33.872 21H28.576C28.3733 21 28.2187 20.952 28.112 20.856C28.016 20.76 27.968 20.6213 27.968 20.44C27.968 20.2693 28.0213 20.136 28.128 20.04C28.2347 19.944 28.384 19.896 28.576 19.896H30.56V11.32L28.816 12.456C28.7307 12.5093 28.6453 12.536 28.56 12.536C28.4107 12.536 28.2773 12.4667 28.16 12.328C28.0533 12.1893 28 12.04 28 11.88C28 11.656 28.0853 11.496 28.256 11.4L30.688 9.816C30.8693 9.69867 31.056 9.64 31.248 9.64C31.4293 9.64 31.5787 9.69867 31.696 9.816C31.8133 9.93333 31.872 10.0987 31.872 10.312V19.896H33.872ZM40.7137 21.128C39.4231 21.128 38.4417 20.6373 37.7697 19.656C37.0977 18.6747 36.7617 17.2453 36.7617 15.368C36.7617 13.48 37.0977 12.0453 37.7697 11.064C38.4417 10.0827 39.4231 9.592 40.7137 9.592C42.0044 9.592 42.9858 10.0827 43.6578 11.064C44.3298 12.0347 44.6658 13.464 44.6658 15.352C44.6658 17.24 44.3298 18.6747 43.6578 19.656C42.9858 20.6373 42.0044 21.128 40.7137 21.128ZM40.7137 20.024C41.6097 20.024 42.2711 19.6453 42.6978 18.888C43.1244 18.1307 43.3377 16.952 43.3377 15.352C43.3377 13.7413 43.1244 12.5627 42.6978 11.816C42.2818 11.0693 41.6204 10.696 40.7137 10.696C39.8177 10.696 39.1564 11.0747 38.7297 11.832C38.3031 12.5787 38.0897 13.752 38.0897 15.352C38.0897 16.952 38.3031 18.1307 38.7297 18.888C39.1564 19.6453 39.8177 20.024 40.7137 20.024ZM57.7285 9.64C57.9312 9.64 58.0912 9.69867 58.2085 9.816C58.3258 9.93333 58.3845 10.0827 58.3845 10.264V20.44C58.3845 20.632 58.3258 20.7867 58.2085 20.904C58.0912 21.0213 57.9312 21.08 57.7285 21.08C57.5258 21.08 57.3658 21.0213 57.2485 20.904C57.1418 20.7867 57.0885 20.632 57.0885 20.44V19.576C56.8538 20.0667 56.5072 20.4453 56.0485 20.712C55.6005 20.9787 55.0725 21.112 54.4645 21.112C53.7818 21.112 53.1792 20.9413 52.6565 20.6C52.1338 20.2587 51.7285 19.784 51.4405 19.176C51.1525 18.5573 51.0085 17.8427 51.0085 17.032C51.0085 16.232 51.1525 15.528 51.4405 14.92C51.7285 14.312 52.1338 13.8427 52.6565 13.512C53.1792 13.1813 53.7818 13.016 54.4645 13.016C55.0725 13.016 55.6005 13.1493 56.0485 13.416C56.5072 13.6827 56.8538 14.0613 57.0885 14.552V10.264C57.0885 10.072 57.1418 9.92267 57.2485 9.816C57.3658 9.69867 57.5258 9.64 57.7285 9.64ZM54.7205 20.04C55.4778 20.04 56.0592 19.784 56.4645 19.272C56.8805 18.7493 57.0885 18.0133 57.0885 17.064C57.0885 16.1147 56.8805 15.384 56.4645 14.872C56.0592 14.36 55.4778 14.104 54.7205 14.104C53.9632 14.104 53.3712 14.36 52.9445 14.872C52.5285 15.384 52.3205 16.104 52.3205 17.032C52.3205 17.9813 52.5285 18.7227 52.9445 19.256C53.3712 19.7787 53.9632 20.04 54.7205 20.04ZM64.289 13.016C66.241 13.016 67.217 14.04 67.217 16.088V20.44C67.217 20.632 67.1583 20.7867 67.041 20.904C66.9343 21.0213 66.785 21.08 66.593 21.08C66.401 21.08 66.2463 21.0213 66.129 20.904C66.0117 20.7867 65.953 20.632 65.953 20.44V19.672C65.7503 20.1307 65.441 20.488 65.025 20.744C64.609 20.9893 64.129 21.112 63.585 21.112C63.0837 21.112 62.6197 21.0107 62.193 20.808C61.777 20.6053 61.4463 20.3227 61.201 19.96C60.9557 19.5973 60.833 19.1973 60.833 18.76C60.833 18.1733 60.9823 17.72 61.281 17.4C61.5797 17.0693 62.0703 16.8347 62.753 16.696C63.4357 16.5467 64.385 16.472 65.601 16.472H65.953V15.944C65.953 15.304 65.8197 14.8347 65.553 14.536C65.297 14.2373 64.8757 14.088 64.289 14.088C63.5637 14.088 62.8277 14.2853 62.081 14.68C61.793 14.8613 61.5903 14.952 61.473 14.952C61.345 14.952 61.2383 14.904 61.153 14.808C61.0677 14.712 61.025 14.5893 61.025 14.44C61.025 14.2907 61.0677 14.1627 61.153 14.056C61.249 13.9387 61.3983 13.8213 61.601 13.704C61.9743 13.4907 62.3957 13.3253 62.865 13.208C63.345 13.08 63.8197 13.016 64.289 13.016ZM63.761 20.088C64.401 20.088 64.9237 19.8747 65.329 19.448C65.745 19.0107 65.953 18.4507 65.953 17.768V17.304H65.665C64.7263 17.304 64.0117 17.3467 63.521 17.432C63.0303 17.5067 62.6783 17.64 62.465 17.832C62.2623 18.0133 62.161 18.2853 62.161 18.648C62.161 19.064 62.3103 19.4107 62.609 19.688C62.9183 19.9547 63.3023 20.088 63.761 20.088ZM75.5254 13.448C75.6427 13.192 75.8294 13.064 76.0854 13.064C76.2454 13.064 76.3894 13.1173 76.5174 13.224C76.6454 13.3307 76.7094 13.464 76.7094 13.624C76.7094 13.72 76.688 13.8053 76.6454 13.88L72.1494 23.576C72.096 23.6933 72.016 23.784 71.9094 23.848C71.8134 23.912 71.712 23.944 71.6054 23.944C71.4454 23.944 71.3014 23.8907 71.1734 23.784C71.056 23.688 70.9974 23.56 70.9974 23.4C70.9974 23.3147 71.0187 23.2293 71.0614 23.144L72.1814 20.728L69.0134 13.88C68.9707 13.8053 68.9494 13.7253 68.9494 13.64C68.9494 13.48 69.0187 13.3413 69.1574 13.224C69.3067 13.1067 69.4667 13.048 69.6374 13.048C69.744 13.048 69.8454 13.08 69.9414 13.144C70.048 13.208 70.128 13.2987 70.1814 13.416L72.8534 19.416L75.5254 13.448ZM80.9315 21.112C80.4408 21.112 79.9715 21.0533 79.5235 20.936C79.0862 20.8187 78.6968 20.6533 78.3555 20.44C78.1635 20.312 78.0248 20.1947 77.9395 20.088C77.8648 19.9707 77.8275 19.832 77.8275 19.672C77.8275 19.5333 77.8648 19.4213 77.9395 19.336C78.0248 19.24 78.1315 19.192 78.2595 19.192C78.3875 19.192 78.5742 19.272 78.8195 19.432C79.1395 19.624 79.4542 19.7787 79.7635 19.896C80.0835 20.0027 80.4782 20.056 80.9475 20.056C81.5235 20.056 81.9715 19.9547 82.2915 19.752C82.6115 19.5493 82.7715 19.256 82.7715 18.872C82.7715 18.6373 82.7128 18.4507 82.5955 18.312C82.4782 18.1627 82.2755 18.0347 81.9875 17.928C81.6995 17.8107 81.2782 17.6933 80.7235 17.576C79.7848 17.3733 79.1128 17.1013 78.7075 16.76C78.3022 16.4187 78.0995 15.9547 78.0995 15.368C78.0995 14.9093 78.2275 14.504 78.4835 14.152C78.7395 13.8 79.0915 13.5227 79.5395 13.32C79.9982 13.1173 80.5155 13.016 81.0915 13.016C81.5075 13.016 81.9075 13.0747 82.2915 13.192C82.6862 13.2987 83.0328 13.4533 83.3315 13.656C83.6942 13.912 83.8755 14.1787 83.8755 14.456C83.8755 14.5947 83.8328 14.712 83.7475 14.808C83.6622 14.904 83.5608 14.952 83.4435 14.952C83.3155 14.952 83.1235 14.8613 82.8675 14.68C82.5688 14.488 82.2862 14.3387 82.0195 14.232C81.7528 14.1253 81.4222 14.072 81.0275 14.072C80.5262 14.072 80.1208 14.184 79.8115 14.408C79.5128 14.632 79.3635 14.9307 79.3635 15.304C79.3635 15.5387 79.4168 15.7307 79.5235 15.88C79.6408 16.0187 79.8275 16.1467 80.0835 16.264C80.3502 16.3707 80.7288 16.4773 81.2195 16.584C81.9448 16.744 82.5048 16.92 82.8995 17.112C83.3048 17.304 83.5928 17.5387 83.7635 17.816C83.9342 18.0933 84.0195 18.4453 84.0195 18.872C84.0195 19.544 83.7368 20.088 83.1715 20.504C82.6062 20.9093 81.8595 21.112 80.9315 21.112ZM97.016 9.64C97.2187 9.64 97.3787 9.69867 97.496 9.816C97.6133 9.93333 97.672 10.0827 97.672 10.264V20.44C97.672 20.632 97.6133 20.7867 97.496 20.904C97.3787 21.0213 97.2187 21.08 97.016 21.08C96.8133 21.08 96.6533 21.0213 96.536 20.904C96.4293 20.7867 96.376 20.632 96.376 20.44V19.576C96.1413 20.0667 95.7947 20.4453 95.336 20.712C94.888 20.9787 94.36 21.112 93.752 21.112C93.0693 21.112 92.4667 20.9413 91.944 20.6C91.4213 20.2587 91.016 19.784 90.728 19.176C90.44 18.5573 90.296 17.8427 90.296 17.032C90.296 16.232 90.44 15.528 90.728 14.92C91.016 14.312 91.4213 13.8427 91.944 13.512C92.4667 13.1813 93.0693 13.016 93.752 13.016C94.36 13.016 94.888 13.1493 95.336 13.416C95.7947 13.6827 96.1413 14.0613 96.376 14.552V10.264C96.376 10.072 96.4293 9.92267 96.536 9.816C96.6533 9.69867 96.8133 9.64 97.016 9.64ZM94.008 20.04C94.7653 20.04 95.3467 19.784 95.752 19.272C96.168 18.7493 96.376 18.0133 96.376 17.064C96.376 16.1147 96.168 15.384 95.752 14.872C95.3467 14.36 94.7653 14.104 94.008 14.104C93.2507 14.104 92.6587 14.36 92.232 14.872C91.816 15.384 91.608 16.104 91.608 17.032C91.608 17.9813 91.816 18.7227 92.232 19.256C92.6587 19.7787 93.2507 20.04 94.008 20.04ZM106.424 19.192C106.542 19.192 106.643 19.24 106.728 19.336C106.814 19.432 106.856 19.5547 106.856 19.704C106.856 19.9707 106.67 20.216 106.296 20.44C105.912 20.664 105.507 20.8347 105.08 20.952C104.654 21.0587 104.238 21.112 103.832 21.112C102.627 21.112 101.672 20.7547 100.968 20.04C100.275 19.3253 99.9285 18.3387 99.9285 17.08C99.9285 16.28 100.083 15.576 100.392 14.968C100.702 14.3493 101.134 13.8693 101.688 13.528C102.254 13.1867 102.894 13.016 103.608 13.016C104.622 13.016 105.427 13.3467 106.024 14.008C106.622 14.6693 106.92 15.5653 106.92 16.696C106.92 16.9093 106.878 17.064 106.792 17.16C106.707 17.256 106.568 17.304 106.376 17.304H101.224C101.32 19.1387 102.19 20.056 103.832 20.056C104.248 20.056 104.606 20.0027 104.904 19.896C105.203 19.7787 105.523 19.624 105.864 19.432C106.142 19.272 106.328 19.192 106.424 19.192ZM103.624 14.024C102.942 14.024 102.392 14.2373 101.976 14.664C101.571 15.0907 101.331 15.6933 101.256 16.472H105.784C105.763 15.6827 105.566 15.08 105.192 14.664C104.819 14.2373 104.296 14.024 103.624 14.024ZM109.806 21.08C109.614 21.08 109.454 21.0267 109.326 20.92C109.209 20.8027 109.15 20.6427 109.15 20.44V10.28C109.15 10.0773 109.209 9.92267 109.326 9.816C109.454 9.69867 109.614 9.64 109.806 9.64C109.987 9.64 110.137 9.69867 110.254 9.816C110.382 9.92267 110.446 10.0773 110.446 10.28V20.44C110.446 20.6427 110.382 20.8027 110.254 20.92C110.137 21.0267 109.987 21.08 109.806 21.08ZM113.845 21.08C113.653 21.08 113.493 21.0267 113.365 20.92C113.247 20.8027 113.189 20.6427 113.189 20.44V13.688C113.189 13.4853 113.247 13.3307 113.365 13.224C113.493 13.1067 113.653 13.048 113.845 13.048C114.037 13.048 114.191 13.1067 114.309 13.224C114.426 13.3307 114.485 13.4853 114.485 13.688V20.44C114.485 20.6533 114.426 20.8133 114.309 20.92C114.191 21.0267 114.037 21.08 113.845 21.08ZM113.845 11.368C113.589 11.368 113.381 11.2933 113.221 11.144C113.061 10.9947 112.981 10.7973 112.981 10.552C112.981 10.3173 113.061 10.1253 113.221 9.976C113.381 9.82667 113.589 9.752 113.845 9.752C114.101 9.752 114.309 9.82667 114.469 9.976C114.629 10.1253 114.709 10.3173 114.709 10.552C114.709 10.7973 114.629 10.9947 114.469 11.144C114.309 11.2933 114.101 11.368 113.845 11.368ZM122.843 13.448C122.961 13.192 123.147 13.064 123.403 13.064C123.563 13.064 123.707 13.1173 123.835 13.224C123.963 13.3307 124.027 13.464 124.027 13.624C124.027 13.72 124.006 13.8053 123.963 13.88L120.843 20.6C120.779 20.7387 120.683 20.8507 120.555 20.936C120.427 21.0107 120.289 21.048 120.139 21.048C120.001 21.048 119.867 21.0107 119.739 20.936C119.611 20.8507 119.51 20.7387 119.435 20.6L116.331 13.88C116.289 13.8053 116.267 13.7253 116.267 13.64C116.267 13.48 116.337 13.3413 116.475 13.224C116.625 13.1067 116.785 13.048 116.955 13.048C117.062 13.048 117.163 13.08 117.259 13.144C117.366 13.208 117.446 13.2987 117.499 13.416L120.171 19.416L122.843 13.448ZM131.705 19.192C131.822 19.192 131.923 19.24 132.009 19.336C132.094 19.432 132.137 19.5547 132.137 19.704C132.137 19.9707 131.95 20.216 131.577 20.44C131.193 20.664 130.787 20.8347 130.361 20.952C129.934 21.0587 129.518 21.112 129.113 21.112C127.907 21.112 126.953 20.7547 126.249 20.04C125.555 19.3253 125.209 18.3387 125.209 17.08C125.209 16.28 125.363 15.576 125.673 14.968C125.982 14.3493 126.414 13.8693 126.969 13.528C127.534 13.1867 128.174 13.016 128.889 13.016C129.902 13.016 130.707 13.3467 131.305 14.008C131.902 14.6693 132.201 15.5653 132.201 16.696C132.201 16.9093 132.158 17.064 132.073 17.16C131.987 17.256 131.849 17.304 131.657 17.304H126.505C126.601 19.1387 127.47 20.056 129.113 20.056C129.529 20.056 129.886 20.0027 130.185 19.896C130.483 19.7787 130.803 19.624 131.145 19.432C131.422 19.272 131.609 19.192 131.705 19.192ZM128.905 14.024C128.222 14.024 127.673 14.2373 127.257 14.664C126.851 15.0907 126.611 15.6933 126.537 16.472H131.065C131.043 15.6827 130.846 15.08 130.473 14.664C130.099 14.2373 129.577 14.024 128.905 14.024ZM138.286 13.048C138.734 13.016 138.958 13.1973 138.958 13.592C138.958 13.7627 138.91 13.9013 138.814 14.008C138.718 14.104 138.553 14.1627 138.318 14.184L137.838 14.232C137.123 14.296 136.59 14.552 136.238 15C135.897 15.4373 135.726 15.9547 135.726 16.552V20.44C135.726 20.6533 135.667 20.8133 135.55 20.92C135.433 21.0267 135.278 21.08 135.086 21.08C134.894 21.08 134.734 21.0267 134.606 20.92C134.489 20.8027 134.43 20.6427 134.43 20.44V13.688C134.43 13.4853 134.494 13.3307 134.622 13.224C134.75 13.1067 134.905 13.048 135.086 13.048C135.257 13.048 135.401 13.1067 135.518 13.224C135.635 13.3307 135.694 13.48 135.694 13.672V14.568C135.918 14.0987 136.233 13.7413 136.638 13.496C137.054 13.2507 137.529 13.1067 138.062 13.064L138.286 13.048ZM146.491 13.448C146.608 13.192 146.795 13.064 147.051 13.064C147.211 13.064 147.355 13.1173 147.483 13.224C147.611 13.3307 147.675 13.464 147.675 13.624C147.675 13.72 147.654 13.8053 147.611 13.88L143.115 23.576C143.062 23.6933 142.982 23.784 142.875 23.848C142.779 23.912 142.678 23.944 142.571 23.944C142.411 23.944 142.267 23.8907 142.139 23.784C142.022 23.688 141.963 23.56 141.963 23.4C141.963 23.3147 141.984 23.2293 142.027 23.144L143.147 20.728L139.979 13.88C139.936 13.8053 139.915 13.7253 139.915 13.64C139.915 13.48 139.984 13.3413 140.123 13.224C140.272 13.1067 140.432 13.048 140.603 13.048C140.71 13.048 140.811 13.08 140.907 13.144C141.014 13.208 141.094 13.2987 141.147 13.416L143.819 19.416L146.491 13.448Z" fill="#333333"/>
<path fill-rule="evenodd" clip-rule="evenodd" d="M12.5 7.5C7.52944 7.5 3.5 11.5294 3.5 16.5C3.5 21.4706 7.52944 25.5 12.5 25.5C17.4706 25.5 21.5 21.4706 21.5 16.5C21.5 14.1131 20.5518 11.8239 18.864 10.136C17.1761 8.44821 14.8869 7.5 12.5 7.5ZM4.5 16.5C4.5 12.0817 8.08172 8.5 12.5 8.5C14.6217 8.5 16.6566 9.34285 18.1569 10.8431C19.6571 12.3434 20.5 14.3783 20.5 16.5C20.5 20.9183 16.9183 24.5 12.5 24.5C8.08172 24.5 4.5 20.9183 4.5 16.5ZM15.459 19.4594C15.5914 19.3271 15.5919 19.1126 15.4601 18.9796L12.8397 16.3591V12.42C12.8397 12.2322 12.6874 12.08 12.4997 12.08C12.3119 12.08 12.1597 12.2322 12.1597 12.42L12.1599 16.5011C12.1602 16.5892 12.1949 16.6737 12.2566 16.7365L12.2592 16.7404L14.9792 19.4604C15.1121 19.5922 15.3266 19.5917 15.459 19.4594Z" fill="#333333"/>
</svg>
