<svg width="126" height="32" viewBox="0 0 126 32" fill="none" xmlns="http://www.w3.org/2000/svg">
<path d="M31.064 21C30.8613 21 30.696 20.9413 30.568 20.824C30.4507 20.7067 30.392 20.552 30.392 20.36V10.36C30.392 10.168 30.4507 10.0133 30.568 9.896C30.696 9.77867 30.8613 9.72 31.064 9.72H34.184C35.9867 9.72 37.3787 10.2107 38.36 11.192C39.352 12.1627 39.848 13.5493 39.848 15.352C39.848 17.1547 39.352 18.5467 38.36 19.528C37.368 20.5093 35.976 21 34.184 21H31.064ZM34.104 19.88C37.0267 19.88 38.488 18.3707 38.488 15.352C38.488 12.344 37.0267 10.84 34.104 10.84H31.704V19.88H34.104ZM51.2441 9.64C51.4468 9.64 51.6015 9.704 51.7081 9.832C51.8255 9.94933 51.8841 10.1093 51.8841 10.312V20.408C51.8841 20.6107 51.8255 20.776 51.7081 20.904C51.6015 21.0213 51.4468 21.08 51.2441 21.08C51.0415 21.08 50.8815 21.0213 50.7641 20.904C50.6468 20.776 50.5881 20.6107 50.5881 20.408V15.832H43.8361V20.408C43.8361 20.6107 43.7775 20.776 43.6601 20.904C43.5428 21.0213 43.3828 21.08 43.1801 21.08C42.9775 21.08 42.8175 21.0213 42.7001 20.904C42.5935 20.776 42.5401 20.6107 42.5401 20.408V10.312C42.5401 10.1093 42.5935 9.94933 42.7001 9.832C42.8175 9.704 42.9775 9.64 43.1801 9.64C43.3828 9.64 43.5428 9.704 43.6601 9.832C43.7775 9.94933 43.8361 10.1093 43.8361 10.312V14.712H50.5881V10.312C50.5881 10.1093 50.6468 9.94933 50.7641 9.832C50.8815 9.704 51.0415 9.64 51.2441 9.64ZM55.6251 21C55.4438 21 55.2891 20.9467 55.1611 20.84C55.0438 20.7227 54.9851 20.5733 54.9851 20.392V10.312C54.9851 10.1093 55.0438 9.94933 55.1611 9.832C55.2785 9.704 55.4385 9.64 55.6411 9.64C55.8438 9.64 56.0038 9.704 56.1211 9.832C56.2385 9.94933 56.2971 10.1093 56.2971 10.312V19.88H61.4651C61.6571 19.88 61.8065 19.928 61.9131 20.024C62.0198 20.12 62.0731 20.2587 62.0731 20.44C62.0731 20.6213 62.0198 20.76 61.9131 20.856C61.8065 20.952 61.6571 21 61.4651 21H55.6251ZM69.0627 21C68.8601 21 68.6947 20.9413 68.5667 20.824C68.4494 20.7067 68.3907 20.552 68.3907 20.36V10.36C68.3907 10.168 68.4494 10.0133 68.5667 9.896C68.6947 9.77867 68.8601 9.72 69.0627 9.72H75.0467C75.2387 9.72 75.3881 9.768 75.4947 9.864C75.6014 9.96 75.6547 10.0933 75.6547 10.264C75.6547 10.4347 75.6014 10.568 75.4947 10.664C75.3881 10.76 75.2387 10.808 75.0467 10.808H69.6867V14.728H74.7267C74.9187 14.728 75.0681 14.776 75.1747 14.872C75.2814 14.968 75.3347 15.1013 75.3347 15.272C75.3347 15.4427 75.2814 15.576 75.1747 15.672C75.0681 15.768 74.9187 15.816 74.7267 15.816H69.6867V19.912H75.0467C75.2387 19.912 75.3881 19.96 75.4947 20.056C75.6014 20.1413 75.6547 20.2747 75.6547 20.456C75.6547 20.6267 75.6014 20.76 75.4947 20.856C75.3881 20.952 75.2387 21 75.0467 21H69.0627ZM84.2312 20.008C84.3592 20.136 84.4232 20.2907 84.4232 20.472C84.4232 20.632 84.3646 20.7707 84.2472 20.888C84.1299 21.0053 83.9912 21.064 83.8312 21.064C83.6606 21.064 83.5059 20.9893 83.3672 20.84L80.7752 17.88L78.1992 20.84C78.0606 20.9893 77.9059 21.064 77.7352 21.064C77.5752 21.064 77.4312 21.0053 77.3032 20.888C77.1859 20.7707 77.1272 20.6267 77.1272 20.456C77.1272 20.296 77.1912 20.1467 77.3192 20.008L79.9752 17.016L77.4312 14.12C77.3032 13.9707 77.2392 13.8213 77.2392 13.672C77.2392 13.5013 77.2979 13.3573 77.4152 13.24C77.5432 13.1227 77.6819 13.064 77.8312 13.064C78.0019 13.064 78.1566 13.1387 78.2952 13.288L80.7752 16.136L83.2552 13.288C83.3939 13.1387 83.5486 13.064 83.7192 13.064C83.8792 13.064 84.0179 13.1227 84.1352 13.24C84.2526 13.3573 84.3112 13.496 84.3112 13.656C84.3112 13.8373 84.2472 13.992 84.1192 14.12L81.5752 17.016L84.2312 20.008ZM90.3525 13.016C91.0352 13.016 91.6378 13.1867 92.1605 13.528C92.6832 13.8693 93.0885 14.3493 93.3765 14.968C93.6645 15.576 93.8085 16.2853 93.8085 17.096C93.8085 17.9067 93.6645 18.616 93.3765 19.224C93.0885 19.8213 92.6832 20.2853 92.1605 20.616C91.6485 20.9467 91.0458 21.112 90.3525 21.112C89.7445 21.112 89.2112 20.9787 88.7525 20.712C88.3045 20.4453 87.9632 20.0667 87.7285 19.576V23.336C87.7285 23.528 87.6698 23.6773 87.5525 23.784C87.4458 23.9013 87.2912 23.96 87.0885 23.96C86.8858 23.96 86.7258 23.9013 86.6085 23.784C86.4912 23.6667 86.4325 23.5173 86.4325 23.336V13.688C86.4325 13.496 86.4912 13.3413 86.6085 13.224C86.7258 13.1067 86.8858 13.048 87.0885 13.048C87.2912 13.048 87.4458 13.1067 87.5525 13.224C87.6698 13.3413 87.7285 13.496 87.7285 13.688V14.552C87.9632 14.0613 88.3045 13.6827 88.7525 13.416C89.2112 13.1493 89.7445 13.016 90.3525 13.016ZM90.0965 20.04C90.8538 20.04 91.4405 19.784 91.8565 19.272C92.2725 18.76 92.4805 18.0347 92.4805 17.096C92.4805 16.1573 92.2725 15.4267 91.8565 14.904C91.4405 14.3707 90.8538 14.104 90.0965 14.104C89.3392 14.104 88.7525 14.36 88.3365 14.872C87.9312 15.384 87.7285 16.1147 87.7285 17.064C87.7285 18.0133 87.9312 18.7493 88.3365 19.272C88.7525 19.784 89.3392 20.04 90.0965 20.04ZM99.921 13.048C100.369 13.016 100.593 13.1973 100.593 13.592C100.593 13.7627 100.545 13.9013 100.449 14.008C100.353 14.104 100.188 14.1627 99.953 14.184L99.473 14.232C98.7583 14.296 98.225 14.552 97.873 15C97.5317 15.4373 97.361 15.9547 97.361 16.552V20.44C97.361 20.6533 97.3023 20.8133 97.185 20.92C97.0677 21.0267 96.913 21.08 96.721 21.08C96.529 21.08 96.369 21.0267 96.241 20.92C96.1237 20.8027 96.065 20.6427 96.065 20.44V13.688C96.065 13.4853 96.129 13.3307 96.257 13.224C96.385 13.1067 96.5397 13.048 96.721 13.048C96.8917 13.048 97.0357 13.1067 97.153 13.224C97.2703 13.3307 97.329 13.48 97.329 13.672V14.568C97.553 14.0987 97.8677 13.7413 98.273 13.496C98.689 13.2507 99.1637 13.1067 99.697 13.064L99.921 13.048ZM107.901 19.192C108.019 19.192 108.12 19.24 108.205 19.336C108.291 19.432 108.333 19.5547 108.333 19.704C108.333 19.9707 108.147 20.216 107.773 20.44C107.389 20.664 106.984 20.8347 106.557 20.952C106.131 21.0587 105.715 21.112 105.309 21.112C104.104 21.112 103.149 20.7547 102.445 20.04C101.752 19.3253 101.405 18.3387 101.405 17.08C101.405 16.28 101.56 15.576 101.869 14.968C102.179 14.3493 102.611 13.8693 103.165 13.528C103.731 13.1867 104.371 13.016 105.085 13.016C106.099 13.016 106.904 13.3467 107.501 14.008C108.099 14.6693 108.397 15.5653 108.397 16.696C108.397 16.9093 108.355 17.064 108.269 17.16C108.184 17.256 108.045 17.304 107.853 17.304H102.701C102.797 19.1387 103.667 20.056 105.309 20.056C105.725 20.056 106.083 20.0027 106.381 19.896C106.68 19.7787 107 19.624 107.341 19.432C107.619 19.272 107.805 19.192 107.901 19.192ZM105.101 14.024C104.419 14.024 103.869 14.2373 103.453 14.664C103.048 15.0907 102.808 15.6933 102.733 16.472H107.261C107.24 15.6827 107.043 15.08 106.669 14.664C106.296 14.2373 105.773 14.024 105.101 14.024ZM113.251 21.112C112.76 21.112 112.291 21.0533 111.843 20.936C111.406 20.8187 111.016 20.6533 110.675 20.44C110.483 20.312 110.344 20.1947 110.259 20.088C110.184 19.9707 110.147 19.832 110.147 19.672C110.147 19.5333 110.184 19.4213 110.259 19.336C110.344 19.24 110.451 19.192 110.579 19.192C110.707 19.192 110.894 19.272 111.139 19.432C111.459 19.624 111.774 19.7787 112.083 19.896C112.403 20.0027 112.798 20.056 113.267 20.056C113.843 20.056 114.291 19.9547 114.611 19.752C114.931 19.5493 115.091 19.256 115.091 18.872C115.091 18.6373 115.032 18.4507 114.915 18.312C114.798 18.1627 114.595 18.0347 114.307 17.928C114.019 17.8107 113.598 17.6933 113.043 17.576C112.104 17.3733 111.432 17.1013 111.027 16.76C110.622 16.4187 110.419 15.9547 110.419 15.368C110.419 14.9093 110.547 14.504 110.803 14.152C111.059 13.8 111.411 13.5227 111.859 13.32C112.318 13.1173 112.835 13.016 113.411 13.016C113.827 13.016 114.227 13.0747 114.611 13.192C115.006 13.2987 115.352 13.4533 115.651 13.656C116.014 13.912 116.195 14.1787 116.195 14.456C116.195 14.5947 116.152 14.712 116.067 14.808C115.982 14.904 115.88 14.952 115.763 14.952C115.635 14.952 115.443 14.8613 115.187 14.68C114.888 14.488 114.606 14.3387 114.339 14.232C114.072 14.1253 113.742 14.072 113.347 14.072C112.846 14.072 112.44 14.184 112.131 14.408C111.832 14.632 111.683 14.9307 111.683 15.304C111.683 15.5387 111.736 15.7307 111.843 15.88C111.96 16.0187 112.147 16.1467 112.403 16.264C112.67 16.3707 113.048 16.4773 113.539 16.584C114.264 16.744 114.824 16.92 115.219 17.112C115.624 17.304 115.912 17.5387 116.083 17.816C116.254 18.0933 116.339 18.4453 116.339 18.872C116.339 19.544 116.056 20.088 115.491 20.504C114.926 20.9093 114.179 21.112 113.251 21.112ZM121.258 21.112C120.768 21.112 120.298 21.0533 119.85 20.936C119.413 20.8187 119.024 20.6533 118.682 20.44C118.49 20.312 118.352 20.1947 118.266 20.088C118.192 19.9707 118.154 19.832 118.154 19.672C118.154 19.5333 118.192 19.4213 118.266 19.336C118.352 19.24 118.458 19.192 118.586 19.192C118.714 19.192 118.901 19.272 119.146 19.432C119.466 19.624 119.781 19.7787 120.09 19.896C120.41 20.0027 120.805 20.056 121.274 20.056C121.85 20.056 122.298 19.9547 122.618 19.752C122.938 19.5493 123.098 19.256 123.098 18.872C123.098 18.6373 123.04 18.4507 122.922 18.312C122.805 18.1627 122.602 18.0347 122.314 17.928C122.026 17.8107 121.605 17.6933 121.05 17.576C120.112 17.3733 119.44 17.1013 119.034 16.76C118.629 16.4187 118.426 15.9547 118.426 15.368C118.426 14.9093 118.554 14.504 118.81 14.152C119.066 13.8 119.418 13.5227 119.866 13.32C120.325 13.1173 120.842 13.016 121.418 13.016C121.834 13.016 122.234 13.0747 122.618 13.192C123.013 13.2987 123.36 13.4533 123.658 13.656C124.021 13.912 124.202 14.1787 124.202 14.456C124.202 14.5947 124.16 14.712 124.074 14.808C123.989 14.904 123.888 14.952 123.77 14.952C123.642 14.952 123.45 14.8613 123.194 14.68C122.896 14.488 122.613 14.3387 122.346 14.232C122.08 14.1253 121.749 14.072 121.354 14.072C120.853 14.072 120.448 14.184 120.138 14.408C119.84 14.632 119.69 14.9307 119.69 15.304C119.69 15.5387 119.744 15.7307 119.85 15.88C119.968 16.0187 120.154 16.1467 120.41 16.264C120.677 16.3707 121.056 16.4773 121.546 16.584C122.272 16.744 122.832 16.92 123.226 17.112C123.632 17.304 123.92 17.5387 124.09 17.816C124.261 18.0933 124.346 18.4453 124.346 18.872C124.346 19.544 124.064 20.088 123.498 20.504C122.933 20.9093 122.186 21.112 121.258 21.112Z" fill="#333333"/>
<path fill-rule="evenodd" clip-rule="evenodd" d="M13.9735 10H2.40915C2.23225 10 2.09959 10.1327 2.09959 10.3096V18.6014C2.09959 18.7783 2.23225 18.911 2.40915 18.911H4.17807C4.33286 18.911 4.46552 18.8004 4.48764 18.6456C4.55397 18.314 4.75297 18.0265 4.9962 17.8054L5.01831 17.7833C5.26154 17.5843 5.59321 17.4737 5.947 17.4737C6.30079 17.4737 6.63246 17.6064 6.87569 17.8054C7.14102 18.0265 7.31792 18.314 7.40636 18.6456C7.42848 18.8004 7.56114 18.8889 7.71593 18.8889H13.9956C14.1725 18.8889 14.3052 18.7562 14.3052 18.5793V10.3096C14.2831 10.1327 14.1283 10 13.9735 10ZM2.6966 10.6191H13.6418V18.2918H7.91493C7.78226 17.9159 7.53903 17.5843 7.25158 17.341C6.8978 17.0536 6.43345 16.8767 5.92489 16.8767C5.43843 16.8767 4.97409 17.0536 4.62031 17.341L4.59819 17.3632C4.28863 17.6064 4.06752 17.9381 3.93485 18.314H2.71871V10.6191H2.6966Z" fill="black"/>
<path fill-rule="evenodd" clip-rule="evenodd" d="M18.9486 14.6434L18.042 11.9237C17.9978 11.791 17.8872 11.7026 17.7546 11.7026H13.9514C13.7745 11.7026 13.6418 11.8352 13.6418 12.0121V18.6014C13.6418 18.7783 13.7745 18.9109 13.9514 18.9109H15.6761C15.8309 18.9109 15.9635 18.8004 15.9857 18.6456C16.052 18.3139 16.251 18.0265 16.4942 17.8054C16.7596 17.6064 17.0691 17.4737 17.4229 17.4737C17.7767 17.4737 18.1084 17.6064 18.3516 17.8054C18.6169 18.0265 18.7938 18.3139 18.8823 18.6456C18.9044 18.8004 19.037 18.8888 19.1918 18.8888H21.6904C21.8673 18.8888 22 18.7562 22 18.5793V16.0586C22 15.9259 21.9116 15.7932 21.7789 15.749L18.9486 14.6434ZM17.5335 12.3438L18.4179 14.9751C18.44 15.0635 18.5064 15.1299 18.5948 15.1741L21.403 16.2797V18.2918H19.4572C19.3245 17.9159 19.0813 17.5843 18.7938 17.341C18.44 17.0536 17.9757 16.8767 17.4671 16.8767C16.9586 16.8767 16.4942 17.0536 16.1404 17.341C15.8309 17.5843 15.6098 17.9159 15.4771 18.2918H14.3052V12.3217H17.5335V12.3438Z" fill="black"/>
<path fill-rule="evenodd" clip-rule="evenodd" d="M18.7275 15.1962C18.9044 15.1962 19.0371 15.0635 19.0371 14.8866C19.0371 14.7098 18.9044 14.5771 18.7275 14.5771H13.9736C13.7967 14.5771 13.664 14.7098 13.664 14.8866C13.664 15.0635 13.7967 15.1962 13.9736 15.1962H18.7275Z" fill="black"/>
<path fill-rule="evenodd" clip-rule="evenodd" d="M17.4452 16.8546C16.8703 16.8546 16.3396 17.0978 15.9416 17.4737L15.9195 17.4958C15.5436 17.8717 15.3224 18.4024 15.3224 18.9773C15.3224 19.5522 15.5657 20.0829 15.9416 20.4809C16.3175 20.8568 16.8481 21.1 17.4452 21.1C18.0201 21.1 18.5507 20.8568 18.9487 20.4809C19.3246 20.105 19.5679 19.5743 19.5679 18.9773C19.5679 18.4024 19.3246 17.8717 18.9487 17.4737C18.5729 17.0978 18.0422 16.8546 17.4452 16.8546ZM16.4059 17.9159C16.6713 17.6506 17.0472 17.4737 17.4673 17.4737C17.8874 17.4737 18.2633 17.6506 18.5286 17.9159C18.794 18.1813 18.9709 18.5572 18.9709 18.9773C18.9709 19.3974 18.794 19.7733 18.5286 20.0387C18.2633 20.304 17.8874 20.4809 17.4673 20.4809C17.0472 20.4809 16.6713 20.304 16.4059 20.0387C16.1406 19.7733 15.9637 19.3974 15.9637 18.9773C15.9637 18.5793 16.1185 18.2034 16.4059 17.9159Z" fill="black"/>
<path fill-rule="evenodd" clip-rule="evenodd" d="M5.92465 16.8546C5.34975 16.8546 4.81907 17.0978 4.42106 17.4737L4.39895 17.4958C4.02306 17.8717 3.80194 18.4024 3.80194 18.9773C3.80194 19.5522 4.04517 20.0829 4.42106 20.4809C4.79696 20.8568 5.32764 21.1 5.92465 21.1C6.49955 21.1 7.03023 20.8568 7.42824 20.4809C7.80414 20.105 8.04736 19.5743 8.04736 18.9773C8.04736 18.4024 7.80414 17.8717 7.42824 17.4737C7.03023 17.0978 6.49955 16.8546 5.92465 16.8546ZM4.8633 17.9159C5.12863 17.6506 5.50453 17.4737 5.92465 17.4737C6.34477 17.4737 6.72067 17.6506 6.98601 17.9159C7.25135 18.1813 7.42824 18.5572 7.42824 18.9773C7.42824 19.3974 7.25135 19.7733 6.98601 20.0387C6.72067 20.304 6.34477 20.4809 5.92465 20.4809C5.50453 20.4809 5.12863 20.304 4.8633 20.0387C4.59796 19.7733 4.42106 19.3974 4.42106 18.9773C4.42106 18.5793 4.59796 18.2034 4.8633 17.9159Z" fill="black"/>
</svg>
