<svg width="92" height="44" viewBox="0 0 92 44" fill="none" xmlns="http://www.w3.org/2000/svg">
<circle cx="22" cy="22" r="22" fill="#F4DE4D"/>
<path d="M38.9097 23.1396C38.7593 24.7324 38.1714 25.9766 37.146 26.8721C36.1206 27.7607 34.7568 28.2051 33.0547 28.2051C31.8652 28.2051 30.8159 27.9248 29.9067 27.3643C29.0044 26.7969 28.3071 25.9937 27.8149 24.9546C27.3228 23.9155 27.0664 22.709 27.0459 21.335V19.9404C27.0459 18.5322 27.2954 17.2915 27.7944 16.2183C28.2935 15.145 29.0078 14.3179 29.9375 13.7368C30.874 13.1558 31.9541 12.8652 33.1777 12.8652C34.8252 12.8652 36.1514 13.313 37.1562 14.2085C38.1611 15.104 38.7456 16.3687 38.9097 18.0024H36.3257C36.2026 16.9292 35.8882 16.1567 35.3823 15.6851C34.8833 15.2065 34.1484 14.9673 33.1777 14.9673C32.0498 14.9673 31.1816 15.3809 30.5732 16.208C29.9717 17.0283 29.6641 18.2349 29.6504 19.8276V21.1504C29.6504 22.7637 29.9375 23.9941 30.5117 24.8418C31.0928 25.6895 31.9404 26.1133 33.0547 26.1133C34.0732 26.1133 34.8389 25.8843 35.3516 25.4263C35.8643 24.9683 36.189 24.2061 36.3257 23.1396H38.9097Z" fill="black"/>
<path d="M52.9058 28C52.7964 27.7881 52.7007 27.4429 52.6187 26.9644C51.8257 27.7915 50.855 28.2051 49.7065 28.2051C48.5923 28.2051 47.6831 27.8872 46.979 27.2515C46.2749 26.6157 45.9229 25.8296 45.9229 24.8931C45.9229 23.7104 46.3604 22.8047 47.2354 22.1758C48.1172 21.54 49.375 21.2222 51.0088 21.2222H52.5366V20.4941C52.5366 19.9199 52.376 19.4619 52.0547 19.1201C51.7334 18.7715 51.2446 18.5972 50.5884 18.5972C50.021 18.5972 49.5562 18.7407 49.1938 19.0278C48.8315 19.3081 48.6504 19.667 48.6504 20.1045H46.1587C46.1587 19.4961 46.3604 18.9287 46.7637 18.4023C47.167 17.8691 47.7139 17.4521 48.4043 17.1514C49.1016 16.8506 49.8774 16.7002 50.7319 16.7002C52.0308 16.7002 53.0664 17.0283 53.8389 17.6846C54.6113 18.334 55.0078 19.25 55.0283 20.4326V25.4365C55.0283 26.4346 55.1685 27.231 55.4487 27.8257V28H52.9058ZM50.168 26.2056C50.6602 26.2056 51.1216 26.0859 51.5522 25.8467C51.9897 25.6074 52.3179 25.2861 52.5366 24.8828V22.791H51.1934C50.2705 22.791 49.5767 22.9517 49.1118 23.2729C48.647 23.5942 48.4146 24.0488 48.4146 24.6367C48.4146 25.1152 48.5718 25.498 48.8862 25.7852C49.2075 26.0654 49.6348 26.2056 50.168 26.2056ZM67.3535 22.5654C67.3535 24.2812 66.9639 25.6519 66.1846 26.6772C65.4053 27.6958 64.3594 28.2051 63.0469 28.2051C61.8301 28.2051 60.856 27.8052 60.1245 27.0054V32.2656H57.6328V16.9053H59.9297L60.0322 18.0332C60.7637 17.1445 61.7583 16.7002 63.0161 16.7002C64.3696 16.7002 65.4292 17.2061 66.1948 18.2178C66.9673 19.2227 67.3535 20.6206 67.3535 22.4116V22.5654ZM64.8721 22.3501C64.8721 21.2427 64.6499 20.3643 64.2056 19.7148C63.7681 19.0654 63.1392 18.7407 62.3188 18.7407C61.3003 18.7407 60.5688 19.1611 60.1245 20.002V24.9238C60.5757 25.7852 61.314 26.2158 62.3394 26.2158C63.1323 26.2158 63.751 25.8979 64.1953 25.2622C64.6465 24.6196 64.8721 23.6489 64.8721 22.3501ZM74.3569 28.2051C72.7778 28.2051 71.4961 27.7095 70.5117 26.7183C69.5342 25.7202 69.0454 24.394 69.0454 22.7397V22.4321C69.0454 21.3247 69.2573 20.3369 69.6812 19.4688C70.1118 18.5938 70.7134 17.9136 71.4858 17.4282C72.2583 16.9429 73.1196 16.7002 74.0698 16.7002C75.5806 16.7002 76.7461 17.1821 77.5664 18.146C78.3936 19.1099 78.8071 20.4736 78.8071 22.2373V23.2422H71.5576C71.6328 24.1582 71.937 24.8828 72.4702 25.416C73.0103 25.9492 73.687 26.2158 74.5005 26.2158C75.6421 26.2158 76.5718 25.7544 77.2896 24.8315L78.6328 26.1133C78.1885 26.7764 77.5938 27.2925 76.8486 27.6616C76.1104 28.0239 75.2798 28.2051 74.3569 28.2051ZM74.0596 18.6997C73.376 18.6997 72.8223 18.939 72.3984 19.4175C71.9814 19.896 71.7148 20.5625 71.5986 21.417H76.3462V21.2324C76.2915 20.3984 76.0693 19.7695 75.6797 19.3457C75.29 18.915 74.75 18.6997 74.0596 18.6997ZM80.2837 22.3706C80.2837 20.6616 80.6802 19.291 81.4731 18.2588C82.2661 17.2197 83.3291 16.7002 84.6621 16.7002C85.8379 16.7002 86.7881 17.1104 87.5127 17.9307V12.25H90.0044V28H87.7485L87.6255 26.8516C86.8804 27.7539 85.8857 28.2051 84.6416 28.2051C83.3428 28.2051 82.29 27.6821 81.4834 26.6362C80.6836 25.5903 80.2837 24.1685 80.2837 22.3706ZM82.7754 22.5859C82.7754 23.7139 82.9907 24.5957 83.4214 25.2314C83.8589 25.8604 84.4775 26.1748 85.2773 26.1748C86.2959 26.1748 87.041 25.7202 87.5127 24.811V20.0737C87.0547 19.1851 86.3164 18.7407 85.2979 18.7407C84.4912 18.7407 83.8691 19.062 83.4316 19.7046C82.9941 20.3403 82.7754 21.3008 82.7754 22.5859Z" fill="black"/>
<rect x="69" y="13" width="12" height="3" fill="black"/>
</svg>
