<svg width="98" height="98" viewBox="0 0 98 98" fill="none" xmlns="http://www.w3.org/2000/svg">
<path d="M29.87 93.71C31.68 94.47 33.52 95.11 35.39 95.64L95.64 35.39C95.11 33.52 94.47 31.68 93.71 29.87L29.87 93.71Z" fill="#FFC263"/>
<path d="M22.08 89.58C23.62 90.59 25.2 91.49 26.81 92.3L92.3 26.81C91.49 25.19 90.59 23.61 89.58 22.08L22.08 89.58Z" fill="#FFC263"/>
<path d="M15.41 84.31C16.71 85.53 18.06 86.67 19.45 87.72L87.72 19.45C86.67 18.06 85.53 16.71 84.31 15.41L15.41 84.31Z" fill="#FFC263"/>
<path d="M32.99 2.57996C26.14 4.90996 19.71 8.79997 14.25 14.25C8.79002 19.71 4.91002 26.14 2.58002 32.99L32.99 2.57996Z" fill="#FFC263"/>
<path d="M96.55 58.36C97.1 55.59 97.41 52.79 97.48 49.98L49.98 97.48C52.79 97.41 55.6 97.1 58.36 96.55L96.55 58.36Z" fill="#FFC263"/>
<path d="M39 96.52C41.18 96.96 43.37 97.25 45.58 97.39L97.39 45.58C97.25 43.37 96.96 41.17 96.52 39L39 96.52Z" fill="#FFC263"/>
<path d="M5.17999 70.67C5.98999 72.29 6.88999 73.87 7.89999 75.4L75.4 7.89999C73.86 6.88999 72.28 5.98999 70.67 5.17999L5.17999 70.67Z" fill="#FFC263"/>
<path d="M0.929993 39.12C0.379993 41.89 0.07 44.69 0 47.5L47.5 0C44.69 0.07 41.88 0.379993 39.12 0.929993L0.929993 39.12Z" fill="#FFC263"/>
<path d="M64.49 94.9C71.34 92.57 77.77 88.68 83.23 83.23C88.69 77.77 92.57 71.34 94.9 64.49L64.49 94.9Z" fill="#FFC263"/>
<path d="M1.83997 62.08C2.36997 63.95 3.00996 65.79 3.76996 67.6L67.61 3.75998C65.8 2.99998 63.96 2.35996 62.09 1.82996L1.83997 62.08Z" fill="#FFC263"/>
<path d="M0.0899658 51.9C0.229966 54.11 0.519961 56.31 0.959961 58.48L58.48 0.959961C56.3 0.519961 54.11 0.229966 51.9 0.0899658L0.0899658 51.9Z" fill="#FFC263"/>
<path d="M9.76001 78.03C10.81 79.42 11.95 80.77 13.17 82.07L82.08 13.16C80.78 11.94 79.43 10.8 78.04 9.75L9.76001 78.03Z" fill="#FFC263"/>
</svg>
