<svg width="160" height="160" viewBox="0 0 160 160" fill="none" xmlns="http://www.w3.org/2000/svg">
<path d="M79.94 159.88C35.86 159.88 0 124.02 0 79.94C0 35.86 35.86 0 79.94 0C124.02 0 159.88 35.86 159.88 79.94C159.87 124.02 124.01 159.88 79.94 159.88ZM79.94 1.01001C36.41 1.01001 1 36.42 1 79.95C1 123.48 36.41 158.89 79.94 158.89C123.47 158.89 158.88 123.48 158.88 79.95C158.88 36.42 123.46 1.01001 79.94 1.01001Z" fill="#FFC263"/>
<path d="M79.94 152.16C40.12 152.16 7.71997 119.76 7.71997 79.94C7.71997 40.12 40.12 7.71997 79.94 7.71997C119.76 7.71997 152.16 40.12 152.16 79.94C152.16 119.77 119.76 152.16 79.94 152.16ZM79.94 9.72998C41.22 9.72998 9.71997 41.23 9.71997 79.95C9.71997 118.67 41.22 150.17 79.94 150.17C118.66 150.17 150.16 118.67 150.16 79.95C150.16 41.23 118.66 9.72998 79.94 9.72998Z" fill="#FFC263"/>
<path d="M79.94 132.11C51.18 132.11 27.78 108.71 27.78 79.95C27.78 51.19 51.18 27.79 79.94 27.79C108.7 27.79 132.1 51.19 132.1 79.95C132.1 108.71 108.7 132.11 79.94 132.11ZM79.94 29.78C52.28 29.78 29.78 52.28 29.78 79.94C29.78 107.6 52.28 130.1 79.94 130.1C107.6 130.1 130.1 107.6 130.1 79.94C130.1 52.29 107.6 29.78 79.94 29.78Z" fill="#FFC263"/>
<path d="M79.94 123.14C56.12 123.14 36.74 103.76 36.74 79.94C36.74 56.12 56.12 36.74 79.94 36.74C103.76 36.74 123.14 56.12 123.14 79.94C123.14 103.77 103.76 123.14 79.94 123.14ZM79.94 37.74C56.67 37.74 37.74 56.67 37.74 79.94C37.74 103.21 56.67 122.14 79.94 122.14C103.21 122.14 122.14 103.21 122.14 79.94C122.14 56.68 103.21 37.74 79.94 37.74Z" fill="#FFC263"/>
<path d="M79.94 106.82C65.12 106.82 53.07 94.77 53.07 79.95C53.07 65.13 65.12 53.08 79.94 53.08C94.76 53.08 106.81 65.13 106.81 79.95C106.81 94.76 94.75 106.82 79.94 106.82ZM79.94 55.07C66.23 55.07 55.07 66.23 55.07 79.94C55.07 93.65 66.23 104.81 79.94 104.81C93.65 104.81 104.81 93.65 104.81 79.94C104.81 66.23 93.65 55.07 79.94 55.07Z" fill="#FFC263"/>
<path d="M79.94 93.3C72.58 93.3 66.59 87.31 66.59 79.95C66.59 72.59 72.58 66.59 79.94 66.59C87.3 66.59 93.3 72.58 93.3 79.95C93.29 87.31 87.3 93.3 79.94 93.3ZM79.94 67.59C73.13 67.59 67.59 73.13 67.59 79.95C67.59 86.77 73.13 92.3 79.94 92.3C86.75 92.3 92.3 86.76 92.3 79.95C92.3 73.14 86.75 67.59 79.94 67.59Z" fill="#FFC263"/>
</svg>
